<svg width="512" height="512" viewBox="0 0 512 512" xmlns="http://www.w3.org/2000/svg">
  <defs>
    <linearGradient id="bg" x1="0" y1="0" x2="1" y2="1">
      <stop offset="0" stop-color="#16140f"/>
      <stop offset="1" stop-color="#0a0a0b"/>
    </linearGradient>
    <linearGradient id="gold" x1="0" y1="0" x2="1" y2="1">
      <stop offset="0" stop-color="#f5ead0"/>
      <stop offset="0.45" stop-color="#d4af37"/>
      <stop offset="1" stop-color="#a8741f"/>
    </linearGradient>
    <radialGradient id="glow" cx="0.5" cy="0.38" r="0.6">
      <stop offset="0" stop-color="#d4af37" stop-opacity="0.35"/>
      <stop offset="1" stop-color="#d4af37" stop-opacity="0"/>
    </radialGradient>
  </defs>
  <rect width="512" height="512" rx="112" fill="url(#bg)"/>
  <rect width="512" height="512" rx="112" fill="url(#glow)"/>
  <rect x="6" y="6" width="500" height="500" rx="108" fill="none" stroke="#d4af37" stroke-opacity="0.25" stroke-width="3"/>
  <g transform="translate(256 248) rotate(45)">
    <path d="M0 -118 C 22 -118 30 -70 30 -34 L 96 14 L 96 44 L 30 24 L 28 78 L 54 96 L 54 118 L 0 104 L -54 118 L -54 96 L -28 78 L -30 24 L -96 44 L -96 14 L -30 -34 C -30 -70 -22 -118 0 -118 Z" fill="url(#gold)"/>
  </g>
  <text x="256" y="430" font-family="Georgia, serif" font-size="58" font-weight="700" fill="url(#gold)" text-anchor="middle" letter-spacing="2">TH</text>
</svg>
